<?xml version="1.0" encoding="UTF-8" standalone="no"?>
<svg
   xmlns:dc="http://purl.org/dc/elements/1.1/"
   xmlns:cc="http://creativecommons.org/ns#"
   xmlns:rdf="http://www.w3.org/1999/02/22-rdf-syntax-ns#"
   xmlns:svg="http://www.w3.org/2000/svg"
   xmlns="http://www.w3.org/2000/svg"
   xmlns:sodipodi="http://sodipodi.sourceforge.net/DTD/sodipodi-0.dtd"
   xmlns:inkscape="http://www.inkscape.org/namespaces/inkscape"
   viewBox="0 0 64 64"
   version="1.1"
   id="svg28"
   sodipodi:docname="icon-server.svg"
   inkscape:version="1.0.2 (1.0.2+r75+1)">
  <metadata
     id="metadata34">
    <rdf:RDF>
      <cc:Work
         rdf:about="">
        <dc:format>image/svg+xml</dc:format>
        <dc:type
           rdf:resource="http://purl.org/dc/dcmitype/StillImage" />
      </cc:Work>
    </rdf:RDF>
  </metadata>
  <defs
     id="defs32" />
  <sodipodi:namedview
     pagecolor="#ffffff"
     bordercolor="#666666"
     borderopacity="1"
     objecttolerance="10"
     gridtolerance="10"
     guidetolerance="10"
     inkscape:pageopacity="0"
     inkscape:pageshadow="2"
     inkscape:window-width="1920"
     inkscape:window-height="1016"
     id="namedview30"
     showgrid="false"
     inkscape:zoom="13.390625"
     inkscape:cx="32"
     inkscape:cy="32"
     inkscape:window-x="1920"
     inkscape:window-y="0"
     inkscape:window-maximized="1"
     inkscape:current-layer="svg28" />
  <path
     fill="#1d1d1b"
     d="M52,19a1,1,0,0,0,1-1V4a1,1,0,0,0-1-1H12a1,1,0,0,0-1,1V18a1,1,0,0,0,1,1h1v5H12a1,1,0,0,0-1,1V39a1,1,0,0,0,1,1h1v5H12a1,1,0,0,0-1,1V60a1,1,0,0,0,1,1H52a1,1,0,0,0,1-1V46a1,1,0,0,0-1-1H50V40h2a1,1,0,0,0,1-1V25a1,1,0,0,0-1-1H50V19ZM13,5H51V17H13ZM51,59H13V47H51ZM48,45H15V40H48Zm3-7H13V26H51ZM48,24H15V19H48Z"
     id="path2" />
  <circle
     cx="48"
     cy="11"
     r="1"
     fill="#1d1d1b"
     id="circle4" />
  <circle
     cx="44"
     cy="11"
     r="1"
     fill="#1d1d1b"
     id="circle6" />
  <circle
     cx="40"
     cy="11"
     r="1"
     fill="#1d1d1b"
     id="circle8" />
  <path
     fill="#1d1d1b"
     d="M16,12H32a1,1,0,0,0,0-2H16a1,1,0,0,0,0,2Z"
     id="path10" />
  <circle
     cx="48"
     cy="32"
     r="1"
     fill="#1d1d1b"
     id="circle12" />
  <circle
     cx="44"
     cy="32"
     r="1"
     fill="#1d1d1b"
     id="circle14" />
  <circle
     cx="40"
     cy="32"
     r="1"
     fill="#1d1d1b"
     id="circle16" />
  <path
     fill="#1d1d1b"
     d="M32,31H16a1,1,0,0,0,0,2H32a1,1,0,0,0,0-2Z"
     id="path18" />
  <circle
     cx="48"
     cy="53"
     r="1"
     fill="#1d1d1b"
     id="circle20" />
  <circle
     cx="44"
     cy="53"
     r="1"
     fill="#1d1d1b"
     id="circle22" />
  <circle
     cx="40"
     cy="53"
     r="1"
     fill="#1d1d1b"
     id="circle24" />
  <path
     fill="#1d1d1b"
     d="M32,52H16a1,1,0,0,0,0,2H32a1,1,0,0,0,0-2Z"
     id="path26" />
  <path
     style="fill:#0c86ff;stroke:#0c86ff;stroke-width:0.0746791"
     d="m 11.617911,60.844692 c -0.140838,-0.07182 -0.325669,-0.225443 -0.410735,-0.341395 -0.153558,-0.20931 -0.154809,-0.262156 -0.174436,-7.365325 -0.0155,-5.610514 6.14e-4,-7.216343 0.07468,-7.441056 0.155557,-0.47196 0.469487,-0.628071 1.263018,-0.628071 h 0.661068 V 42.53889 40.008935 l -0.672457,-0.03215 c -0.757591,-0.03622 -0.98841,-0.148267 -1.213074,-0.58886 C 11.024362,39.149429 11.015401,38.642405 11.015401,32 c 0,-6.642405 0.009,-7.149429 0.130573,-7.387924 0.224664,-0.440593 0.455483,-0.552639 1.213074,-0.58886 l 0.672457,-0.03215 V 21.46111 18.931155 h -0.638481 c -0.710575,0 -0.973572,-0.09337 -1.198737,-0.425588 -0.136856,-0.201922 -0.141778,-0.46242 -0.141778,-7.503584 0,-7.2601965 7.25e-4,-7.2953886 0.154667,-7.505251 0.08507,-0.115968 0.269897,-0.2696086 0.410735,-0.3414234 C 11.859823,3.0319546 12.986598,3.0247362 32,3.0247362 c 19.013402,0 20.140177,0.00722 20.38209,0.1305724 0.140837,0.071815 0.325668,0.2254425 0.410735,0.3413948 0.153557,0.2093097 0.154808,0.2621558 0.174435,7.3653246 0.0155,5.610514 -5.98e-4,7.216343 -0.07468,7.441056 -0.05899,0.178988 -0.189701,0.350655 -0.348198,0.457313 -0.236957,0.159457 -0.329627,0.170758 -1.400233,0.170758 h -1.146483 v 2.532388 2.532387 l 1.152238,0.02537 c 1.287873,0.02836 1.445141,0.08288 1.704123,0.590774 0.121611,0.238495 0.130572,0.745519 0.130572,7.387924 0,6.642405 -0.009,7.149429 -0.130572,7.387924 -0.258982,0.507894 -0.41625,0.562415 -1.704123,0.590774 l -1.152238,0.02537 v 2.532387 2.532388 h 1.146483 c 1.070606,0 1.163276,0.0113 1.400233,0.170758 0.158497,0.106658 0.289205,0.278325 0.348198,0.457313 0.07407,0.224713 0.09018,1.830542 0.07468,7.441056 -0.01963,7.103169 -0.02088,7.156015 -0.174435,7.365325 -0.08507,0.115952 -0.269898,0.26958 -0.410735,0.341395 C 52.140177,60.968041 51.013402,60.97526 32,60.97526 c -19.013402,0 -20.140177,-0.0072 -20.382089,-0.130572 z M 51.043174,52.984831 V 46.935823 H 32 12.956826 v 6.049008 6.049008 H 32 51.043174 Z M 48.056009,42.529755 v -2.53909 H 31.514586 14.973162 v 2.53909 2.53909 H 31.514586 48.056009 Z M 51.043174,32 V 25.950992 H 32 12.956826 V 32 38.049008 H 32 51.043174 Z M 48.056009,21.470245 v -2.53909 H 31.514586 14.973162 v 2.53909 2.53909 H 31.514586 48.056009 Z M 51.043174,11.015169 V 4.966161 H 32 12.956826 v 6.049008 6.049008 H 32 51.043174 Z"
     id="path859" />
  <path
     style="fill:#0c86ff;stroke:#0c86ff;stroke-width:0.0746791"
     d="m 15.595545,11.831884 c -0.514489,-0.25467 -0.692673,-0.839418 -0.401369,-1.317173 0.305259,-0.500641 -0.260519,-0.470382 8.792781,-0.470254 9.16143,1.29e-4 8.553451,-0.03571 8.846849,0.521472 0.18186,0.345361 0.172801,0.597632 -0.03249,0.904941 -0.368095,0.551005 0.248528,0.514889 -8.791977,0.514953 -8.033723,5.6e-5 -8.105332,-0.0013 -8.41379,-0.153939 z"
     id="path861" />
  <path
     style="fill:#0c86ff;stroke:#0c86ff;stroke-width:0.0746791"
     d="m 39.648275,11.879848 c -0.53626,-0.233488 -0.748454,-0.817502 -0.474276,-1.305336 0.399714,-0.7111945 1.381983,-0.6840231 1.687288,0.04667 0.214751,0.513971 -0.01156,1.032635 -0.550837,1.262418 -0.292803,0.124761 -0.367983,0.124335 -0.662175,-0.0038 z"
     id="path863" />
  <path
     style="fill:#0c86ff;stroke:#0c86ff;stroke-width:0.0746791"
     d="m 43.612602,11.84613 c -0.527195,-0.244364 -0.712668,-0.841191 -0.413758,-1.331419 0.335783,-0.5507026 1.040353,-0.6174552 1.477891,-0.140019 0.234122,0.255472 0.275686,0.389493 0.244951,0.789835 -0.04546,0.592117 -0.731503,0.949321 -1.309084,0.681603 z"
     id="path865" />
  <path
     style="fill:#0c86ff;stroke:#0c86ff;stroke-width:0.0746791"
     d="m 47.645274,11.881259 c -0.6518,-0.287711 -0.78701,-1.071953 -0.270182,-1.567105 0.428066,-0.4101135 1.117294,-0.313499 1.430732,0.200557 0.293127,0.480744 0.112089,1.06737 -0.40694,1.318627 -0.365417,0.176896 -0.449333,0.182232 -0.75361,0.04792 z"
     id="path867" />
  <path
     style="fill:#0c86ff;stroke:#0c86ff;stroke-width:0.0746791"
     d="m 15.579668,32.843134 c -0.704287,-0.346956 -0.697103,-1.352728 0.01207,-1.689251 0.24053,-0.114139 0.95511,-0.124688 8.428887,-0.124432 8.016739,2.74e-4 8.170528,0.003 8.409466,0.148675 0.287522,0.175304 0.540183,0.559722 0.540183,0.821874 0,0.262152 -0.252661,0.64657 -0.540183,0.821874 -0.23899,0.145714 -0.3912,0.14837 -8.420752,0.146975 -7.475066,-0.0013 -8.199032,-0.0121 -8.429667,-0.125715 z"
     id="path869" />
  <path
     style="fill:#0c86ff;stroke:#0c86ff;stroke-width:0.0746791"
     d="m 15.518211,53.809324 c -0.652868,-0.398077 -0.606907,-1.30873 0.0829,-1.642662 0.311685,-0.150885 0.409495,-0.152658 8.413127,-0.152544 9.035002,1.3e-4 8.418985,-0.03598 8.787069,0.515012 0.205295,0.307309 0.214354,0.55958 0.03249,0.904941 -0.293431,0.557243 0.316426,0.521375 -8.861811,0.521193 -8.015836,-1.59e-4 -8.22049,-0.0037 -8.453784,-0.14594 z"
     id="path871" />
  <path
     style="fill:#0c86ff;stroke:#0c86ff;stroke-width:0.0746791"
     d="m 39.572952,53.838275 c -0.323833,-0.15978 -0.581802,-0.639775 -0.520231,-0.967977 0.06312,-0.336447 0.358293,-0.676577 0.679011,-0.782423 0.32912,-0.10862 0.678432,-0.0031 0.95887,0.289592 0.716919,0.748302 -0.181577,1.922668 -1.11765,1.460808 z"
     id="path873" />
  <path
     style="fill:#0c86ff;stroke:#0c86ff;stroke-width:0.0746791"
     d="m 43.522879,53.813696 c -0.688547,-0.432422 -0.596129,-1.401195 0.161262,-1.690445 0.265921,-0.101556 0.374854,-0.109064 0.583475,-0.04021 0.707409,0.233466 0.89958,1.087734 0.360806,1.603912 -0.295123,0.282746 -0.770385,0.337233 -1.105543,0.126745 z"
     id="path875" />
  <path
     style="fill:#0c86ff;stroke:#0c86ff;stroke-width:0.0746791"
     d="m 47.645274,53.884413 c -0.223968,-0.09264 -0.480496,-0.398006 -0.556253,-0.662154 -0.141177,-0.492257 0.215636,-1.055099 0.742197,-1.170751 0.516946,-0.113541 1.121404,0.416098 1.120662,0.981949 -8.09e-4,0.616387 -0.728279,1.090168 -1.306606,0.850956 z"
     id="path877" />
  <path
     style="fill:#0c86ff;stroke:#0c86ff;stroke-width:0.0746791"
     d="M 47.555983,32.824756 C 47.229288,32.625558 47.064814,32.349377 47.064814,32 c 0,-0.349377 0.164474,-0.625558 0.491169,-0.824756 0.822143,-0.501293 1.754574,0.497373 1.244903,1.333334 -0.154481,0.253378 -0.532778,0.462468 -0.835827,0.461971 -0.09373,-1.57e-4 -0.277819,-0.06576 -0.409076,-0.145793 z"
     id="path879" />
  <path
     style="fill:#0c86ff;stroke:#0c86ff;stroke-width:0.0746791"
     d="m 43.595403,32.86011 c -0.13268,-0.05768 -0.308984,-0.215991 -0.391786,-0.351803 -0.568075,-0.931751 0.577456,-1.912857 1.41277,-1.209987 0.555016,0.467015 0.383368,1.327165 -0.317865,1.592855 -0.272112,0.1031 -0.408345,0.09708 -0.703119,-0.03106 z"
     id="path881" />
  <path
     style="fill:#0c86ff;stroke:#0c86ff;stroke-width:0.0746791"
     d="m 39.565318,32.824756 c -0.674267,-0.411126 -0.674267,-1.238386 0,-1.649512 0.131257,-0.08003 0.323188,-0.14564 0.426512,-0.145793 0.459894,-6.84e-4 0.969664,0.509552 0.969664,0.970549 0,0.460997 -0.50977,0.971233 -0.969664,0.970549 -0.103324,-1.53e-4 -0.295255,-0.06576 -0.426512,-0.145793 z"
     id="path883" />
</svg>
