<?xml version="1.0" encoding="UTF-8" standalone="no"?>
<svg
   xmlns:dc="http://purl.org/dc/elements/1.1/"
   xmlns:cc="http://creativecommons.org/ns#"
   xmlns:rdf="http://www.w3.org/1999/02/22-rdf-syntax-ns#"
   xmlns:svg="http://www.w3.org/2000/svg"
   xmlns="http://www.w3.org/2000/svg"
   xmlns:sodipodi="http://sodipodi.sourceforge.net/DTD/sodipodi-0.dtd"
   xmlns:inkscape="http://www.inkscape.org/namespaces/inkscape"
   enable-background="new 0 0 80 80"
   viewBox="0 0 80 80"
   version="1.1"
   id="svg4"
   sodipodi:docname="icon-database.svg"
   inkscape:version="1.0.2 (1.0.2+r75+1)">
  <metadata
     id="metadata10">
    <rdf:RDF>
      <cc:Work
         rdf:about="">
        <dc:format>image/svg+xml</dc:format>
        <dc:type
           rdf:resource="http://purl.org/dc/dcmitype/StillImage" />
      </cc:Work>
    </rdf:RDF>
  </metadata>
  <defs
     id="defs8" />
  <sodipodi:namedview
     pagecolor="#ffffff"
     bordercolor="#666666"
     borderopacity="1"
     objecttolerance="10"
     gridtolerance="10"
     guidetolerance="10"
     inkscape:pageopacity="0"
     inkscape:pageshadow="2"
     inkscape:window-width="1920"
     inkscape:window-height="1016"
     id="namedview6"
     showgrid="false"
     inkscape:zoom="10.7125"
     inkscape:cx="40"
     inkscape:cy="40"
     inkscape:window-x="0"
     inkscape:window-y="0"
     inkscape:window-maximized="1"
     inkscape:current-layer="svg4" />
  <path
     d="M69,63V17c0-6.7285156-12.7382812-12-29-12s-29,5.2714844-29,12v46c0,6.7285156,12.7382812,12,29,12S69,69.7285156,69,63z   M40,7c16.1503906,0,27,5.1708984,27,10S56.1503906,27,40,27s-27-5.1708984-27-10S23.8496094,7,40,7z M40,29  c12.4387817,0,22.8082886-3.0859985,27-7.5474854V28.5c0,4.8291016-10.8496094,10-27,10s-27-5.1708984-27-10v-7.0474854  C17.1917114,25.9140015,27.5612183,29,40,29z M40,40.5c12.4387817,0,22.8082886-3.0859985,27-7.5474854V40  c0,4.8291016-10.8496094,10-27,10s-27-5.1708984-27-10v-7.0474854C17.1917114,37.4140015,27.5612183,40.5,40,40.5z M40,52  c12.4387817,0,22.8082886-3.0859985,27-7.5474854V51.5c0,4.8291016-10.8496094,10-27,10s-27-5.1708984-27-10v-7.0474854  C17.1917114,48.9140015,27.5612183,52,40,52z M13,63v-7.0474854C17.1917114,60.4140015,27.5612183,63.5,40,63.5  s22.8082886-3.0859985,27-7.5474854V63c0,4.8291016-10.8496094,10-27,10S13,67.8291016,13,63z"
     id="path2" />
  <path
     style="fill:#0c86ff;stroke:#0c86ff;stroke-width:0.0933489"
     d="M 35.985998,74.854002 C 28.453963,74.342118 22.585784,73.023478 18.016336,70.816035 14.690783,69.209502 12.566175,67.399178 11.619738,65.365653 11.019252,64.075443 11.061844,66.011938 11.061844,40 c 0,-20.953834 0.01641,-23.735266 0.142972,-24.227762 C 12.543443,10.563049 21.267111,6.5075256 33.69895,5.314999 35.832628,5.1103254 41.852239,5.0291465 44.224249,5.1730575 56.330859,5.9075714 65.901622,9.6045812 68.289648,14.469078 68.99464,15.905173 68.938156,13.681495 68.938156,40 c 0,26.011938 0.04259,24.075443 -0.557895,25.365653 -1.936527,4.160843 -9.174454,7.590039 -18.858674,8.934891 -3.299451,0.458197 -4.474276,0.532546 -8.868145,0.561231 -2.284714,0.01492 -4.385064,0.01142 -4.667444,-0.0078 z m 7.654609,-1.905065 c 11.933428,-0.625171 21.324051,-4.144818 23.176372,-8.686604 0.199163,-0.488338 0.206958,-0.63393 0.235671,-4.402356 0.01633,-2.143524 0.0054,-3.897317 -0.02436,-3.897317 -0.02973,0 -0.399777,0.298748 -0.822323,0.663883 -4.063172,3.511118 -11.145157,5.771304 -20.791729,6.635595 -1.822855,0.16332 -9.005617,0.16332 -10.828472,0 -3.747743,-0.335782 -6.714857,-0.803807 -9.568261,-1.509276 -4.928347,-1.218473 -8.699178,-2.941728 -11.219542,-5.127287 -0.420456,-0.364603 -0.788018,-0.662915 -0.816803,-0.662915 -0.09407,0 -0.05538,7.1461 0.0415,7.665206 0.70631,3.784543 7.642709,7.31792 17.10303,8.712221 4.206861,0.620024 9.096702,0.840313 13.514914,0.60885 z M 43.173862,61.468398 c 4.299549,-0.201711 8.072712,-0.712639 11.43524,-1.548458 6.570821,-1.6333 11.020865,-4.244009 12.218953,-7.168498 0.185427,-0.452621 0.19649,-0.670965 0.224668,-4.434132 l 0.02964,-3.958071 -0.572735,0.504162 C 63.570485,47.450636 59.435192,49.297632 53.785382,50.546583 49.427736,51.509888 45.474461,51.897212 40,51.897212 c -4.638639,0 -7.070252,-0.179021 -10.828471,-0.797214 -6.929605,-1.139858 -12.174933,-3.193185 -15.47815,-6.059051 l -0.7757,-0.672996 0.02962,3.953714 c 0.02816,3.758769 0.03923,3.977188 0.224648,4.429777 1.192495,2.910838 5.658742,5.543182 12.110773,7.137925 5.307014,1.31173 11.652098,1.871733 17.891144,1.579031 z m 1.400234,-11.580826 c 6.627141,-0.398223 12.511389,-1.749422 16.849475,-3.869142 1.761468,-0.860708 2.830995,-1.595589 3.922904,-2.695466 1.014019,-1.021417 1.456014,-1.744951 1.63162,-2.670919 0.09893,-0.521681 0.13301,-7.746561 0.03654,-7.746561 -0.0311,0 -0.37608,0.298407 -0.766618,0.663126 -5.422338,5.063861 -19.51545,7.870914 -32.969137,6.566759 C 24.612343,39.295263 17.22321,36.81035 13.751987,33.56861 13.361449,33.203891 13.016471,32.905484 12.98537,32.905484 c -0.09439,0 -0.06314,7.220988 0.03346,7.730321 0.382406,2.016424 2.783276,4.19409 6.368493,5.77643 6.368307,2.810661 15.433042,4.061437 25.186777,3.475337 z m 1.68028,-11.606163 c 6.262488,-0.596404 11.394282,-1.876257 15.262543,-3.806429 3.086723,-1.540204 5.069053,-3.462173 5.450678,-5.284709 0.108528,-0.5183 0.152827,-7.7667 0.04747,-7.7667 -0.03086,0 -0.356418,0.278412 -0.723454,0.618693 -1.437598,1.332803 -3.91994,2.742901 -6.688343,3.799319 -9.431759,3.599147 -24.159825,4.132943 -35.170143,1.274688 -4.629057,-1.201694 -8.541567,-3.053569 -10.727833,-5.077717 -0.365332,-0.33824 -0.689491,-0.614983 -0.720354,-0.614983 -0.105361,0 -0.06106,7.2484 0.04747,7.7667 0.448965,2.144133 3.121594,4.407477 7.177632,6.078455 3.756912,1.547745 8.986181,2.671366 14.189032,3.048817 0.744457,0.05401 1.54259,0.113759 1.773628,0.13278 1.141369,0.09397 8.640697,-0.03168 10.081681,-0.168914 z M 46.067678,26.796493 c 6.39146,-0.596333 11.736164,-1.928701 15.592643,-3.88705 3.750774,-1.904671 5.692807,-4.244966 5.331573,-6.424944 C 66.352358,12.625022 59.532623,9.1061366 49.894982,7.662738 43.619347,6.7228561 36.404238,6.7231286 30.105018,7.6634856 20.482369,9.0999687 13.647412,12.62641 13.008106,16.484499 c -0.428541,2.586163 2.420392,5.400717 7.481976,7.391687 4.154742,1.634264 9.199776,2.646732 15.215869,3.053613 1.880489,0.12718 8.479819,0.04228 10.361727,-0.133306 z"
     id="path12" />
</svg>
